<svg width="48" height="48" viewBox="0 0 48 48" fill="none" xmlns="http://www.w3.org/2000/svg">
<path d="M29.9404 45.5H17.9404C7.08043 45.5 2.44043 40.86 2.44043 30V18C2.44043 7.14 7.08043 2.5 17.9404 2.5H21.9404C22.7604 2.5 23.4404 3.18 23.4404 4C23.4404 4.82 22.7604 5.5 21.9404 5.5H17.9404C8.72043 5.5 5.44043 8.78 5.44043 18V30C5.44043 39.22 8.72043 42.5 17.9404 42.5H29.9404C39.1604 42.5 42.4404 39.22 42.4404 30V26C42.4404 25.18 43.1204 24.5 43.9404 24.5C44.7604 24.5 45.4404 25.18 45.4404 26V30C45.4404 40.86 40.8204 45.5 29.9404 45.5Z" fill="#C588FD"/>
<path d="M25.5602 30.4798C25.2602 30.4798 24.9802 30.3998 24.7202 30.2198C24.3002 29.9398 24.0602 29.4798 24.0602 28.9798C24.0602 28.7598 24.0402 28.5198 24.0002 28.2798C23.8602 27.2198 23.3802 26.2798 22.5802 25.4598C21.7602 24.6398 20.7602 24.1198 19.6602 23.9798C19.5002 23.9598 19.2402 23.9398 19.0002 23.9598C18.5002 23.9998 18.0002 23.7798 17.7002 23.3798C17.4002 22.9798 17.3202 22.4398 17.4802 21.9598C17.7202 21.2798 18.1002 20.6398 18.5402 20.1398L21.0002 17.0598C25.2802 11.7198 33.9002 5.31978 40.2602 2.77978C41.7202 2.21978 43.2602 2.53978 44.3202 3.59978C45.4202 4.69978 45.7402 6.25978 45.1602 7.67978C42.6202 14.0198 36.2202 22.6598 30.9002 26.9198L27.7602 29.4398C27.1402 29.8798 26.6402 30.1798 26.1202 30.3798C25.9402 30.4398 25.7402 30.4798 25.5602 30.4798ZM21.4402 21.3398C22.6602 21.7398 23.7602 22.4198 24.7002 23.3398C25.6202 24.2598 26.2802 25.3198 26.6602 26.4598L29.0202 24.5598C34.0002 20.5598 40.0002 12.4798 42.3802 6.53978C42.5402 6.15978 42.3602 5.87978 42.2002 5.69978C42.1002 5.59978 41.8202 5.37978 41.3602 5.55978C35.4402 7.93978 27.3602 13.9398 23.3602 18.9198L21.4402 21.3398Z" fill="#C588FD"/>
<path d="M15.4 37.5005C14.12 37.5005 12.9 37.0005 11.98 36.0805C10.92 35.0205 10.4 33.5605 10.58 32.0605L11 28.1405C11.44 24.0805 14.74 21.0805 18.88 21.0005C19.2 20.9805 19.6 21.0005 19.98 21.0205C21.8 21.2605 23.42 22.0605 24.7 23.3605C25.98 24.6405 26.76 26.1605 26.98 27.8805C27.04 28.2605 27.06 28.6405 27.06 29.0005C27.06 31.1805 26.22 33.2405 24.68 34.7805C23.42 36.0405 21.78 36.8205 19.92 37.0605L15.96 37.4805C15.76 37.5005 15.58 37.5005 15.4 37.5005ZM19.2 23.9805C19.14 23.9805 19.06 23.9805 19 23.9805C16.7 24.0405 14.28 25.5805 13.98 28.4605L13.56 32.4005C13.5 32.9805 13.7 33.5605 14.1 33.9605C14.5 34.3605 15.06 34.5605 15.62 34.5005L19.56 34.0805C20.72 33.9405 21.76 33.4405 22.54 32.6605C23.5 31.6805 24.04 30.4005 24.04 29.0005C24.04 28.7805 24.02 28.5405 23.98 28.3005C23.84 27.2405 23.36 26.3005 22.56 25.4805C21.74 24.6605 20.74 24.1405 19.64 24.0005C19.54 23.9805 19.38 23.9805 19.2 23.9805Z" fill="#C588FD"/>
<path d="M31.6396 25.4589C30.8196 25.4589 30.1396 24.7789 30.1396 23.9589C30.1396 20.6189 27.4196 17.8789 24.0596 17.8789C23.2396 17.8789 22.5596 17.1989 22.5596 16.3789C22.5596 15.5589 23.2396 14.8789 24.0596 14.8789C29.0596 14.8789 33.1396 18.9389 33.1396 23.9589C33.1396 24.7789 32.4796 25.4589 31.6396 25.4589Z" fill="#C588FD"/>
</svg>
