<svg width="48" height="48" viewBox="0 0 48 48" fill="none" xmlns="http://www.w3.org/2000/svg">
<path d="M48 0H0V48H48V0Z" fill="white"/>
<path d="M31.5 15C31.5 14.172 30.825 13.5 30 13.5C29.175 13.5 28.5 14.172 28.5 15V16.5C28.5 17.328 29.175 18 30 18C30.825 18 31.5 17.328 31.5 16.5V15Z" fill="#C588FD"/>
<path d="M33 18C33.825 18 34.5 18.672 34.5 19.5V21C34.5 21.828 33.825 22.5 33 22.5C32.175 22.5 31.5 21.828 31.5 21V19.5C31.5 18.672 32.175 18 33 18Z" fill="#C588FD"/>
<path d="M31.5 24C31.5 23.172 30.825 22.5 30 22.5C29.175 22.5 28.5 23.172 28.5 24V25.5C28.5 26.328 29.175 27 30 27C30.825 27 31.5 26.328 31.5 25.5V24Z" fill="#C588FD"/>
<path d="M33 27C33.825 27 34.5 27.672 34.5 28.5V30C34.5 30.828 33.825 31.5 33 31.5C32.175 31.5 31.5 30.828 31.5 30V28.5C31.5 27.672 32.175 27 33 27Z" fill="#C588FD"/>
<path d="M31.5 33C31.5 32.172 30.825 31.5 30 31.5C29.175 31.5 28.5 32.172 28.5 33V34.5C28.5 35.328 29.175 36 30 36C30.825 36 31.5 35.328 31.5 34.5V33Z" fill="#C588FD"/>
<path d="M33 36C33.825 36 34.5 36.672 34.5 37.5V39C34.5 39.828 33.825 40.5 33 40.5C32.175 40.5 31.5 39.828 31.5 39V37.5C31.5 36.672 32.175 36 33 36Z" fill="#C588FD"/>
<path fill-rule="evenodd" clip-rule="evenodd" d="M45 37.5V18C45 13.8585 41.64 10.5 37.5 10.5H26.3549L21.8549 3H10.5C6.36 3 3 6.3585 3 10.5V37.5C3 41.6415 6.36 45 10.5 45H37.5C41.64 45 45 41.6415 45 37.5ZM42 18V37.5C42 39.9855 39.99 42 37.5 42H31.5C31.5 41.172 30.825 40.5 30 40.5C29.175 40.5 28.5 41.172 28.5 42H10.5C8.01 42 6 39.9855 6 37.5V10.5C6 8.0145 8.01 6 10.5 6H20.1451L24.6451 13.5H37.5C39.99 13.5 42 15.5145 42 18Z" fill="#C588FD"/>
</svg>
