<svg width="48" height="48" viewBox="0 0 48 48" fill="none" xmlns="http://www.w3.org/2000/svg">
<path d="M30 45.5H18C7.14 45.5 2.5 40.86 2.5 30V18C2.5 7.14 7.14 2.5 18 2.5H30C40.86 2.5 45.5 7.14 45.5 18V30C45.5 40.86 40.86 45.5 30 45.5ZM18 5.5C8.78 5.5 5.5 8.78 5.5 18V30C5.5 39.22 8.78 42.5 18 42.5H30C39.22 42.5 42.5 39.22 42.5 30V18C42.5 8.78 39.22 5.5 30 5.5H18Z" fill="#C588FD"/>
<path d="M16.8402 35.7214C14.2802 35.7214 12.2002 33.6414 12.2002 31.0814C12.2002 28.5214 14.2802 26.4414 16.8402 26.4414C19.4002 26.4414 21.4802 28.5214 21.4802 31.0814C21.4802 33.6414 19.4002 35.7214 16.8402 35.7214ZM16.8402 29.4414C15.9402 29.4414 15.2002 30.1814 15.2002 31.0814C15.2002 31.9814 15.9402 32.7214 16.8402 32.7214C17.7402 32.7214 18.4802 31.9814 18.4802 31.0814C18.4802 30.1814 17.7402 29.4414 16.8402 29.4414Z" fill="#C588FD"/>
<path d="M19.9805 32.5801C19.1605 32.5801 18.4805 31.9001 18.4805 31.0801V18.4202C18.4805 16.5002 19.6805 14.9401 21.5205 14.4401L27.8005 12.7201C29.7005 12.2001 30.9005 12.7001 31.5605 13.2001C32.5205 13.9401 33.0005 15.1002 33.0005 16.6802V28.9601C33.0005 29.7801 32.3205 30.4601 31.5005 30.4601C30.6805 30.4601 30.0005 29.7801 30.0005 28.9601V16.6802C30.0005 16.0202 29.8605 15.6601 29.7405 15.5801C29.6405 15.5001 29.2804 15.4201 28.5804 15.6001L22.3005 17.3201C21.7405 17.4801 21.4805 17.8202 21.4805 18.4002V31.0602C21.4805 31.9002 20.8005 32.5801 19.9805 32.5801Z" fill="#C588FD"/>
<path d="M28.3597 33.6199C25.7997 33.6199 23.7197 31.5399 23.7197 28.9799C23.7197 26.4199 25.7997 24.3398 28.3597 24.3398C30.9197 24.3398 32.9998 26.4199 32.9998 28.9799C32.9998 31.5399 30.9197 33.6199 28.3597 33.6199ZM28.3597 27.3398C27.4597 27.3398 26.7197 28.0799 26.7197 28.9799C26.7197 29.8799 27.4597 30.6199 28.3597 30.6199C29.2597 30.6199 29.9998 29.8799 29.9998 28.9799C29.9998 28.0799 29.2597 27.3398 28.3597 27.3398Z" fill="#C588FD"/>
<path d="M19.9797 23.5787C19.3197 23.5787 18.7198 23.1387 18.5398 22.4787C18.3198 21.6787 18.7997 20.8588 19.5997 20.6388L31.1197 17.4987C31.9397 17.2787 32.7397 17.7588 32.9597 18.5588C33.1797 19.3588 32.6998 20.1788 31.8998 20.3988L20.3797 23.5388C20.2397 23.5588 20.0997 23.5787 19.9797 23.5787Z" fill="#C588FD"/>
</svg>
