<svg width="48" height="48" viewBox="0 0 48 48" fill="none" xmlns="http://www.w3.org/2000/svg">
<path d="M32 45.5H16C8.7 45.5 4.5 41.3 4.5 34V14C4.5 6.7 8.7 2.5 16 2.5H32C39.3 2.5 43.5 6.7 43.5 14V34C43.5 41.3 39.3 45.5 32 45.5ZM16 5.5C10.28 5.5 7.5 8.28 7.5 14V34C7.5 39.72 10.28 42.5 16 42.5H32C37.72 42.5 40.5 39.72 40.5 34V14C40.5 8.28 37.72 5.5 32 5.5H16Z" fill="#C588FD"/>
<path d="M37 18.5H33C29.96 18.5 27.5 16.04 27.5 13V9C27.5 8.18 28.18 7.5 29 7.5C29.82 7.5 30.5 8.18 30.5 9V13C30.5 14.38 31.62 15.5 33 15.5H37C37.82 15.5 38.5 16.18 38.5 17C38.5 17.82 37.82 18.5 37 18.5Z" fill="#C588FD"/>
<path d="M24 27.5H16C15.18 27.5 14.5 26.82 14.5 26C14.5 25.18 15.18 24.5 16 24.5H24C24.82 24.5 25.5 25.18 25.5 26C25.5 26.82 24.82 27.5 24 27.5Z" fill="#C588FD"/>
<path d="M32 35.5H16C15.18 35.5 14.5 34.82 14.5 34C14.5 33.18 15.18 32.5 16 32.5H32C32.82 32.5 33.5 33.18 33.5 34C33.5 34.82 32.82 35.5 32 35.5Z" fill="#C588FD"/>
</svg>
