<svg width="48" height="48" viewBox="0 0 48 48" fill="none" xmlns="http://www.w3.org/2000/svg">
<path d="M32 45.5H16C9.12 45.5 4.5 40.88 4.5 34V14C4.5 7.12 9.12 2.5 16 2.5H25.86C28.94 2.5 31.82 3.7 34 5.86L40.14 12C42.32 14.18 43.5 17.06 43.5 20.14V34C43.5 40.88 38.88 45.5 32 45.5ZM16 5.5C10.84 5.5 7.5 8.84 7.5 14V34C7.5 39.16 10.84 42.5 16 42.5H32C37.16 42.5 40.5 39.16 40.5 34V20.14C40.5 17.88 39.62 15.74 38 14.12L31.86 8C30.26 6.4 28.12 5.5 25.84 5.5H16Z" fill="#C588FD"/>
<path d="M28 38.5H20C15.86 38.5 12.5 35.14 12.5 31V25C12.5 20.86 15.86 17.5 20 17.5H28C32.14 17.5 35.5 20.86 35.5 25V31C35.5 35.14 32.14 38.5 28 38.5ZM20 20.5C17.52 20.5 15.5 22.52 15.5 25V31C15.5 33.48 17.52 35.5 20 35.5H28C30.48 35.5 32.5 33.48 32.5 31V25C32.5 22.52 30.48 20.5 28 20.5H20Z" fill="#C588FD"/>
<path d="M24 38.5C23.18 38.5 22.5 37.82 22.5 37V19C22.5 18.18 23.18 17.5 24 17.5C24.82 17.5 25.5 18.18 25.5 19V37C25.5 37.82 24.82 38.5 24 38.5Z" fill="#C588FD"/>
<path d="M33 29.5H15C14.18 29.5 13.5 28.82 13.5 28C13.5 27.18 14.18 26.5 15 26.5H33C33.82 26.5 34.5 27.18 34.5 28C34.5 28.82 33.82 29.5 33 29.5Z" fill="#C588FD"/>
</svg>
