<svg width="48" height="48" viewBox="0 0 48 48" fill="none" xmlns="http://www.w3.org/2000/svg">
<path d="M25.5 21.5H20C16.96 21.5 14.5 19.04 14.5 16C14.5 12.96 16.96 10.5 20 10.5H25.5V21.5ZM20 13.5C18.62 13.5 17.5 14.62 17.5 16C17.5 17.38 18.62 18.5 20 18.5H22.5V13.5H20Z" fill="#C588FD"/>
<path d="M25.5 29.5H20C16.96 29.5 14.5 27.04 14.5 24C14.5 20.96 16.96 18.5 20 18.5H25.5V29.5ZM20 21.5C18.62 21.5 17.5 22.62 17.5 24C17.5 25.38 18.62 26.5 20 26.5H22.5V21.5H20Z" fill="#C588FD"/>
<path d="M20 37.5C16.96 37.5 14.5 35.04 14.5 32C14.5 28.96 16.96 26.5 20 26.5H25.5V32C25.5 35.04 23.04 37.5 20 37.5ZM20 29.5C18.62 29.5 17.5 30.62 17.5 32C17.5 33.38 18.62 34.5 20 34.5C21.38 34.5 22.5 33.38 22.5 32V29.5H20Z" fill="#C588FD"/>
<path d="M28 21.5H22.5V10.5H28C31.04 10.5 33.5 12.96 33.5 16C33.5 19.04 31.04 21.5 28 21.5ZM25.5 18.5H28C29.38 18.5 30.5 17.38 30.5 16C30.5 14.62 29.38 13.5 28 13.5H25.5V18.5Z" fill="#C588FD"/>
<path d="M28 29.5C24.96 29.5 22.5 27.04 22.5 24C22.5 20.96 24.96 18.5 28 18.5C31.04 18.5 33.5 20.96 33.5 24C33.5 27.04 31.04 29.5 28 29.5ZM28 21.5C26.62 21.5 25.5 22.62 25.5 24C25.5 25.38 26.62 26.5 28 26.5C29.38 26.5 30.5 25.38 30.5 24C30.5 22.62 29.38 21.5 28 21.5Z" fill="#C588FD"/>
<path d="M24 45.5C12.14 45.5 2.5 35.86 2.5 24C2.5 12.14 12.14 2.5 24 2.5C35.86 2.5 45.5 12.14 45.5 24C45.5 35.86 35.86 45.5 24 45.5ZM24 5.5C13.8 5.5 5.5 13.8 5.5 24C5.5 34.2 13.8 42.5 24 42.5C34.2 42.5 42.5 34.2 42.5 24C42.5 13.8 34.2 5.5 24 5.5Z" fill="#C588FD"/>
</svg>
