<svg width="48" height="48" viewBox="0 0 48 48" fill="none" xmlns="http://www.w3.org/2000/svg">
<path d="M36.5799 45.5H11.4199C4.6199 45.5 4.2599 41.76 3.9599 38.74L3.1599 28.72C2.9799 26.78 3.5399 24.84 4.7799 23.28C6.2599 21.48 8.3599 20.5 10.6199 20.5H37.3799C39.5999 20.5 41.6999 21.48 43.1199 23.18L43.4599 23.64C44.5399 25.12 45.0199 26.92 44.8399 28.74L44.0399 38.72C43.7399 41.76 43.3799 45.5 36.5799 45.5ZM10.6199 23.5C9.2799 23.5 7.9999 24.1 7.1599 25.14L7.0199 25.28C6.3799 26.1 6.0399 27.26 6.1599 28.46L6.9599 38.48C7.2399 41.4 7.3599 42.5 11.4199 42.5H36.5799C40.6599 42.5 40.7599 41.4 41.0399 38.46L41.8399 28.44C41.9599 27.26 41.6199 26.08 40.8399 25.16L40.6399 24.92C39.7399 23.98 38.5999 23.5 37.3599 23.5H10.6199Z" fill="#C588FD"/>
<path d="M41 24.4386C40.18 24.4386 39.5 23.7586 39.5 22.9386V19.3586C39.5 13.3986 38.46 12.3586 32.5 12.3586H27.4C25.14 12.3586 24.36 11.5586 23.5 10.4186L20.92 6.99859C20.04 5.83859 19.84 5.55859 18.04 5.55859H15.5C9.54 5.55859 8.5 6.59859 8.5 12.5586V22.8586C8.5 23.6786 7.82 24.3586 7 24.3586C6.18 24.3586 5.5 23.6786 5.5 22.8586V12.5586C5.5 4.89859 7.84 2.55859 15.5 2.55859H18.06C21.14 2.55859 22.1 3.55859 23.34 5.19859L25.9 8.59859C26.44 9.31859 26.48 9.35859 27.42 9.35859H32.52C40.18 9.35859 42.52 11.6986 42.52 19.3586V22.9386C42.5 23.7586 41.82 24.4386 41 24.4386Z" fill="#C588FD"/>
<path d="M29.1404 35.5H18.8604C18.0404 35.5 17.3604 34.82 17.3604 34C17.3604 33.18 18.0404 32.5 18.8604 32.5H29.1404C29.9604 32.5 30.6404 33.18 30.6404 34C30.6404 34.82 29.9804 35.5 29.1404 35.5Z" fill="#C588FD"/>
</svg>
