<svg width="48" height="48" viewBox="0 0 48 48" fill="none" xmlns="http://www.w3.org/2000/svg">
<path d="M42 36V37.5C42 39.99 39.99 42 37.5 42H36C35.175 42 34.5 42.675 34.5 43.5C34.5 44.325 35.175 45 36 45H37.5C41.64 45 45 41.64 45 37.5V36C45 35.175 44.325 34.5 43.5 34.5C42.675 34.5 42 35.175 42 36Z" fill="#C588FD"/>
<path d="M42 21V27C42 27.825 42.675 28.5 43.5 28.5C44.325 28.5 45 27.825 45 27V21C45 20.175 44.325 19.5 43.5 19.5C42.675 19.5 42 20.175 42 21Z" fill="#C588FD"/>
<path d="M42 10.5V12C42 12.825 42.675 13.5 43.5 13.5C44.325 13.5 45 12.825 45 12V10.5C45 6.36 41.64 3 37.5 3H36C35.175 3 34.5 3.675 34.5 4.5C34.5 5.325 35.175 6 36 6H37.5C39.99 6 42 8.01 42 10.5Z" fill="#C588FD"/>
<path d="M27 6C27.825 6 28.5 5.325 28.5 4.5C28.5 3.675 27.825 3 27 3H21C20.175 3 19.5 3.675 19.5 4.5C19.5 5.325 20.175 6 21 6H27Z" fill="#C588FD"/>
<path d="M27 45C27.825 45 28.5 44.325 28.5 43.5C28.5 42.675 27.825 42 27 42H21C20.175 42 19.5 42.675 19.5 43.5C19.5 44.325 20.175 45 21 45H27Z" fill="#C588FD"/>
<path d="M12 6C12.825 6 13.5 5.325 13.5 4.5C13.5 3.675 12.825 3 12 3H10.5C6.36 3 3 6.36 3 10.5V12C3 12.825 3.675 13.5 4.5 13.5C5.325 13.5 6 12.825 6 12V10.5C6 8.01 8.01 6 10.5 6H12Z" fill="#C588FD"/>
<path d="M12 45C12.825 45 13.5 44.325 13.5 43.5C13.5 42.675 12.825 42 12 42H10.5C8.01 42 6 39.99 6 37.5V36C6 35.175 5.325 34.5 4.5 34.5C3.675 34.5 3 35.175 3 36V37.5C3 41.64 6.36 45 10.5 45H12Z" fill="#C588FD"/>
<path d="M6 21C6 20.175 5.325 19.5 4.5 19.5C3.675 19.5 3 20.175 3 21V27C3 27.825 3.675 28.5 4.5 28.5C5.325 28.5 6 27.825 6 27V21Z" fill="#C588FD"/>
<path d="M34.125 15C34.125 14.175 33.45 13.5 32.625 13.5H15.375C14.55 13.5 13.875 14.175 13.875 15C13.875 15.825 14.55 16.5 15.375 16.5H22.5V33C22.5 33.825 23.175 34.5 24 34.5C24.825 34.5 25.5 33.825 25.5 33V16.5H32.625C33.45 16.5 34.125 15.825 34.125 15Z" fill="#C588FD"/>
</svg>
