<svg width="48" height="48" viewBox="0 0 48 48" fill="none" xmlns="http://www.w3.org/2000/svg">
<path d="M15.5996 29.0992C14.7796 29.0992 14.0996 28.4192 14.0996 27.5992V19.1992C14.0996 18.3792 14.7796 17.6992 15.5996 17.6992C16.4196 17.6992 17.0996 18.3792 17.0996 19.1992V27.5992C17.0996 28.4192 16.4196 29.0992 15.5996 29.0992Z" fill="#C588FD"/>
<path d="M15.9 37.4992C12.92 37.4992 10.5 35.0792 10.5 32.0992C10.5 29.1192 12.92 26.6992 15.9 26.6992C18.88 26.6992 21.3 29.1192 21.3 32.0992C21.3 35.0792 18.88 37.4992 15.9 37.4992ZM15.9 29.6992C14.58 29.6992 13.5 30.7792 13.5 32.0992C13.5 33.4192 14.58 34.4992 15.9 34.4992C17.22 34.4992 18.3 33.4192 18.3 32.0992C18.3 30.7792 17.22 29.6992 15.9 29.6992Z" fill="#C588FD"/>
<path d="M15.6 20.7C12.78 20.7 10.5 18.42 10.5 15.6C10.5 12.78 12.78 10.5 15.6 10.5C18.42 10.5 20.7 12.78 20.7 15.6C20.7 18.42 18.42 20.7 15.6 20.7ZM15.6 13.5C14.44 13.5 13.5 14.44 13.5 15.6C13.5 16.76 14.44 17.7 15.6 17.7C16.76 17.7 17.7 16.76 17.7 15.6C17.7 14.44 16.76 13.5 15.6 13.5Z" fill="#C588FD"/>
<path d="M32.3998 20.7C29.5798 20.7 27.2998 18.42 27.2998 15.6C27.2998 12.78 29.5798 10.5 32.3998 10.5C35.2198 10.5 37.4998 12.78 37.4998 15.6C37.4998 18.42 35.2198 20.7 32.3998 20.7ZM32.3998 13.5C31.2398 13.5 30.2998 14.44 30.2998 15.6C30.2998 16.76 31.2398 17.7 32.3998 17.7C33.5598 17.7 34.4998 16.76 34.4998 15.6C34.4998 14.44 33.5598 13.5 32.3998 13.5Z" fill="#C588FD"/>
<path d="M15.7602 29.0983C15.6402 29.0983 15.5002 29.0783 15.3802 29.0583C14.5802 28.8583 14.1002 28.0383 14.3002 27.2383C15.0202 24.4183 17.5601 22.4783 20.4601 22.4783H20.4802L24.6001 22.4983H24.6202C27.0402 22.4983 29.1802 20.9783 29.9802 18.6983C30.2602 17.9183 31.1202 17.4983 31.8802 17.7783C32.6602 18.0583 33.0802 18.8983 32.8002 19.6983C31.5802 23.1983 28.3001 25.5383 24.5801 25.5183L20.4601 25.4983C20.4601 25.4983 20.4601 25.4983 20.4401 25.4983C18.9001 25.4983 17.5602 26.5383 17.1802 28.0183C17.0402 28.6583 16.4202 29.0983 15.7602 29.0983Z" fill="#C588FD"/>
<path d="M30 45.5H18C7.14 45.5 2.5 40.86 2.5 30V18C2.5 7.14 7.14 2.5 18 2.5H30C40.86 2.5 45.5 7.14 45.5 18V30C45.5 40.86 40.86 45.5 30 45.5ZM18 5.5C8.78 5.5 5.5 8.78 5.5 18V30C5.5 39.22 8.78 42.5 18 42.5H30C39.22 42.5 42.5 39.22 42.5 30V18C42.5 8.78 39.22 5.5 30 5.5H18Z" fill="#C588FD"/>
</svg>
