<svg width="48" height="48" viewBox="0 0 48 48" fill="none" xmlns="http://www.w3.org/2000/svg">
<path d="M30 45.5H18C7.14 45.5 2.5 40.86 2.5 30V18C2.5 7.14 7.14 2.5 18 2.5H30C40.86 2.5 45.5 7.14 45.5 18V30C45.5 40.86 40.86 45.5 30 45.5ZM18 5.5C8.78 5.5 5.5 8.78 5.5 18V30C5.5 39.22 8.78 42.5 18 42.5H30C39.22 42.5 42.5 39.22 42.5 30V18C42.5 8.78 39.22 5.5 30 5.5H18Z" fill="#C588FD"/>
<path d="M19.2004 31.5598C18.8204 31.5598 18.4404 31.4198 18.1404 31.1198L13.1604 26.1398C11.9804 24.9598 11.9804 23.0598 13.1604 21.8798L18.1404 16.8998C18.7204 16.3198 19.6804 16.3198 20.2604 16.8998C20.8404 17.4798 20.8404 18.4398 20.2604 19.0198L15.2804 23.9998L20.2604 28.9998C20.8404 29.5798 20.8404 30.5398 20.2604 31.1198C19.9604 31.3998 19.5804 31.5598 19.2004 31.5598Z" fill="#C588FD"/>
<path d="M28.7997 31.5603C28.4197 31.5603 28.0397 31.4203 27.7397 31.1203C27.1597 30.5403 27.1597 29.5803 27.7397 29.0003L32.7197 24.0003L27.7397 19.0003C27.1597 18.4203 27.1597 17.4603 27.7397 16.8803C28.3197 16.3003 29.2797 16.3003 29.8597 16.8803L34.8397 21.8603C36.0197 23.0403 36.0197 24.9403 34.8397 26.1203L29.8597 31.1003C29.5797 31.4003 29.1797 31.5603 28.7997 31.5603Z" fill="#C588FD"/>
</svg>
