<svg width="48" height="48" viewBox="0 0 48 48" fill="none" xmlns="http://www.w3.org/2000/svg">
<path d="M32 45.5H16C8.7 45.5 4.5 41.3 4.5 34V14C4.5 6.7 8.7 2.5 16 2.5H32C39.3 2.5 43.5 6.7 43.5 14V34C43.5 41.3 39.3 45.5 32 45.5ZM16 5.5C10.28 5.5 7.5 8.28 7.5 14V34C7.5 39.72 10.28 42.5 16 42.5H32C37.72 42.5 40.5 39.72 40.5 34V14C40.5 8.28 37.72 5.5 32 5.5H16Z" fill="#C588FD"/>
<path d="M37 18.5H33C29.96 18.5 27.5 16.04 27.5 13V9C27.5 8.18 28.18 7.5 29 7.5C29.82 7.5 30.5 8.18 30.5 9V13C30.5 14.38 31.62 15.5 33 15.5H37C37.82 15.5 38.5 16.18 38.5 17C38.5 17.82 37.82 18.5 37 18.5Z" fill="#C588FD"/>
<path d="M19.9999 35.499C19.6199 35.499 19.2399 35.359 18.9399 35.059L14.9399 31.059C14.3599 30.479 14.3599 29.5189 14.9399 28.9389L18.9399 24.9389C19.5199 24.3589 20.4799 24.3589 21.0599 24.9389C21.6399 25.5189 21.6399 26.479 21.0599 27.059L18.1199 29.999L21.0599 32.9389C21.6399 33.5189 21.6399 34.479 21.0599 35.059C20.7599 35.359 20.3799 35.499 19.9999 35.499Z" fill="#C588FD"/>
<path d="M27.9999 35.499C27.6199 35.499 27.2399 35.359 26.9399 35.059C26.3599 34.479 26.3599 33.5189 26.9399 32.9389L29.8799 29.999L26.9399 27.059C26.3599 26.479 26.3599 25.5189 26.9399 24.9389C27.5199 24.3589 28.4799 24.3589 29.0599 24.9389L33.0599 28.9389C33.6399 29.5189 33.6399 30.479 33.0599 31.059L29.0599 35.059C28.7599 35.359 28.3799 35.499 27.9999 35.499Z" fill="#C588FD"/>
</svg>
