<svg width="48" height="48" viewBox="0 0 48 48" fill="none" xmlns="http://www.w3.org/2000/svg">
<path d="M32 45.5H16C9.12 45.5 4.5 40.88 4.5 34V14C4.5 7.12 9.12 2.5 16 2.5H25.86C28.94 2.5 31.82 3.69999 34 5.85999L40.14 12C42.32 14.16 43.5 17.06 43.5 20.14V34C43.5 40.88 38.88 45.5 32 45.5ZM16 5.5C10.84 5.5 7.5 8.84 7.5 14V34C7.5 39.16 10.84 42.5 16 42.5H32C37.16 42.5 40.5 39.16 40.5 34V20.14C40.5 17.86 39.62 15.74 38 14.14L31.86 8C30.26 6.4 28.12 5.52002 25.84 5.52002H16V5.5Z" fill="#C588FD"/>
<path d="M18.9999 37.499C18.6199 37.499 18.2399 37.359 17.9399 37.059L13.9399 33.059C13.3599 32.479 13.3599 31.5189 13.9399 30.9389L17.9399 26.9389C18.5199 26.3589 19.4799 26.3589 20.0599 26.9389C20.6399 27.5189 20.6399 28.479 20.0599 29.059L17.1199 31.999L20.0599 34.9389C20.6399 35.5189 20.6399 36.479 20.0599 37.059C19.7599 37.359 19.3799 37.499 18.9999 37.499Z" fill="#C588FD"/>
<path d="M28.9999 37.499C28.6199 37.499 28.2399 37.359 27.9399 37.059C27.3599 36.479 27.3599 35.5189 27.9399 34.9389L30.8799 31.999L27.9399 29.059C27.3599 28.479 27.3599 27.5189 27.9399 26.9389C28.5199 26.3589 29.4799 26.3589 30.0599 26.9389L34.0599 30.9389C34.6399 31.5189 34.6399 32.479 34.0599 33.059L30.0599 37.059C29.7599 37.359 29.3799 37.499 28.9999 37.499Z" fill="#C588FD"/>
</svg>
