<svg width="48" height="48" viewBox="0 0 48 48" fill="none" xmlns="http://www.w3.org/2000/svg">
<path d="M24 44.159C23.4 44.159 22.8 44.019 22.3 43.739C18.56 41.699 11.98 39.539 7.86 38.999L7.28 38.919C4.66 38.599 2.5 36.139 2.5 33.479V9.31904C2.5 7.73904 3.12 6.29904 4.26 5.25904C5.4 4.21904 6.88 3.71904 8.44 3.85904C12.84 4.19904 19.48 6.39904 23.24 8.75904L23.72 9.03904C23.86 9.11904 24.16 9.11904 24.28 9.05904L24.6 8.85904C28.36 6.49904 35 4.25904 39.42 3.87904C39.46 3.87904 39.62 3.87904 39.66 3.87904C41.12 3.73904 42.62 4.25904 43.74 5.29904C44.88 6.33904 45.5 7.77904 45.5 9.35904V33.499C45.5 36.179 43.34 38.619 40.7 38.939L40.04 39.019C35.92 39.559 29.32 41.739 25.66 43.759C25.18 44.039 24.6 44.159 24 44.159ZM7.96 6.83904C7.32 6.83904 6.74 7.05904 6.28 7.47904C5.78 7.93904 5.5 8.59904 5.5 9.31904V33.479C5.5 34.659 6.52 35.799 7.66 35.959L8.26 36.039C12.76 36.639 19.66 38.899 23.66 41.079C23.84 41.159 24.1 41.179 24.2 41.139C28.2 38.919 35.14 36.639 39.66 36.039L40.34 35.959C41.48 35.819 42.5 34.659 42.5 33.479V9.33904C42.5 8.59904 42.22 7.95904 41.72 7.47904C41.2 7.01904 40.54 6.79904 39.8 6.83904C39.76 6.83904 39.6 6.83904 39.56 6.83904C35.74 7.17904 29.58 9.23904 26.22 11.339L25.9 11.559C24.8 12.239 23.24 12.239 22.18 11.579L21.7 11.299C18.28 9.19904 12.12 7.15904 8.2 6.83904C8.12 6.83904 8.04 6.83904 7.96 6.83904Z" fill="#C588FD"/>
<path d="M24 42.4805C23.18 42.4805 22.5 41.8005 22.5 40.9805V10.9805C22.5 10.1605 23.18 9.48047 24 9.48047C24.82 9.48047 25.5 10.1605 25.5 10.9805V40.9805C25.5 41.8205 24.82 42.4805 24 42.4805Z" fill="#C588FD"/>
<path d="M15.5 18.4805H11C10.18 18.4805 9.5 17.8005 9.5 16.9805C9.5 16.1605 10.18 15.4805 11 15.4805H15.5C16.32 15.4805 17 16.1605 17 16.9805C17 17.8005 16.32 18.4805 15.5 18.4805Z" fill="#C588FD"/>
<path d="M17 24.4805H11C10.18 24.4805 9.5 23.8005 9.5 22.9805C9.5 22.1605 10.18 21.4805 11 21.4805H17C17.82 21.4805 18.5 22.1605 18.5 22.9805C18.5 23.8005 17.82 24.4805 17 24.4805Z" fill="#C588FD"/>
</svg>
