<svg width="48" height="48" viewBox="0 0 48 48" fill="none" xmlns="http://www.w3.org/2000/svg">
<path d="M23.5798 23.76C22.4998 23.76 21.3998 23.56 20.5398 23.18L8.7398 17.94C5.7398 16.6 5.2998 14.8 5.2998 13.82C5.2998 12.84 5.7398 11.04 8.7398 9.7L20.5398 4.46C22.2798 3.68 24.8998 3.68 26.6398 4.46L38.4598 9.7C41.4398 11.02 41.8998 12.84 41.8998 13.82C41.8998 14.8 41.4598 16.6 38.4598 17.94L26.6398 23.18C25.7598 23.58 24.6798 23.76 23.5798 23.76ZM23.5798 6.88C22.8998 6.88 22.2398 6.98 21.7598 7.2L9.9598 12.44C8.7398 13 8.2998 13.56 8.2998 13.82C8.2998 14.08 8.7398 14.66 9.9398 15.2L21.7398 20.44C22.6998 20.86 24.4398 20.86 25.3998 20.44L37.2198 15.2C38.4398 14.66 38.8798 14.08 38.8798 13.82C38.8798 13.56 38.4398 12.98 37.2198 12.44L25.4198 7.2C24.9398 7 24.2598 6.88 23.5798 6.88Z" fill="#C588FD"/>
<path d="M24 34.18C23.24 34.18 22.48 34.02 21.76 33.7L8.18 27.66C6.12 26.76 4.5 24.26 4.5 22C4.5 21.18 5.18 20.5 6 20.5C6.82 20.5 7.5 21.18 7.5 22C7.5 23.1 8.4 24.48 9.4 24.94L22.98 30.98C23.62 31.26 24.36 31.26 25.02 30.98L38.6 24.94C39.6 24.5 40.5 23.1 40.5 22C40.5 21.18 41.18 20.5 42 20.5C42.82 20.5 43.5 21.18 43.5 22C43.5 24.26 41.88 26.76 39.82 27.68L26.24 33.72C25.52 34.02 24.76 34.18 24 34.18Z" fill="#C588FD"/>
<path d="M24 44.1805C23.24 44.1805 22.48 44.0205 21.76 43.7005L8.18 37.6605C5.94 36.6605 4.5 34.4405 4.5 31.9805C4.5 31.1605 5.18 30.4805 6 30.4805C6.82 30.4805 7.5 31.1805 7.5 32.0005C7.5 33.2605 8.24 34.4205 9.4 34.9405L22.98 40.9805C23.62 41.2605 24.36 41.2605 25.02 40.9805L38.6 34.9405C39.76 34.4205 40.5 33.2805 40.5 32.0005C40.5 31.1805 41.18 30.5005 42 30.5005C42.82 30.5005 43.5 31.1805 43.5 32.0005C43.5 34.4605 42.06 36.6805 39.82 37.6805L26.24 43.7205C25.52 44.0205 24.76 44.1805 24 44.1805Z" fill="#C588FD"/>
</svg>
