<svg width="48" height="48" viewBox="0 0 48 48" fill="none" xmlns="http://www.w3.org/2000/svg">
<path d="M19.2 37.5007C14.4 37.5007 10.5 33.6007 10.5 28.8007C10.5 24.8807 13.14 21.4207 16.92 20.4007C17.66 20.2007 18.42 20.5807 18.7 21.3007C19.36 22.9607 20.78 24.2407 22.5 24.7007C23.44 24.9607 24.56 24.9607 25.5 24.7007C26.24 24.5007 27.02 24.8807 27.3 25.5807C27.7 26.6007 27.9 27.6807 27.9 28.7807C27.9 31.2607 26.84 33.6207 25 35.2607C23.42 36.7007 21.36 37.5007 19.2 37.5007ZM16.58 23.7407C14.72 24.7007 13.5 26.6407 13.5 28.8007C13.5 31.9407 16.06 34.5007 19.2 34.5007C20.6 34.5007 21.96 33.9807 23 33.0407C24.22 31.9607 24.9 30.4207 24.9 28.8007C24.9 28.4807 24.8799 28.1807 24.8199 27.8607C23.7599 27.9607 22.68 27.8607 21.7 27.5807C19.56 27.0007 17.72 25.6007 16.58 23.7407Z" fill="#C588FD"/>
<path d="M24.0004 27.8995C23.2004 27.8995 22.4203 27.7995 21.7003 27.5995C19.0803 26.8795 16.9204 24.9395 15.9204 22.4195C15.5204 21.3995 15.3203 20.3195 15.3203 19.2195C15.3203 14.4195 19.2204 10.5195 24.0204 10.5195C28.8204 10.5195 32.7203 14.4195 32.7203 19.2195C32.7203 20.3195 32.5204 21.3995 32.1204 22.4195C31.1204 24.9595 28.9403 26.8995 26.3203 27.5995C25.5803 27.7995 24.8004 27.8995 24.0004 27.8995ZM24.0004 13.4995C20.8604 13.4995 18.3004 16.0595 18.3004 19.1995C18.3004 19.9195 18.4403 20.6395 18.7003 21.2995C19.3603 22.9595 20.7804 24.2395 22.5004 24.6995C23.4404 24.9595 24.5604 24.9595 25.5004 24.6995C27.2404 24.2195 28.6604 22.9595 29.3004 21.2995C29.5604 20.6395 29.7003 19.9195 29.7003 19.1995C29.7003 16.0595 27.1404 13.4995 24.0004 13.4995Z" fill="#C588FD"/>
<path d="M28.8 37.4991C26.64 37.4991 24.58 36.6991 23 35.2591C22.68 34.9791 22.5 34.5591 22.5 34.1391C22.5 33.7191 22.68 33.2991 23 33.0191C24.2 31.9591 24.9 30.4191 24.9 28.7991C24.9 28.0791 24.76 27.3591 24.5 26.6991C24.34 26.2991 24.3601 25.8591 24.5601 25.4791C24.7401 25.0991 25.1 24.8191 25.5 24.6991C27.22 24.2191 28.64 22.9591 29.3 21.2991C29.58 20.5991 30.34 20.1991 31.08 20.3991C34.86 21.4191 37.5 24.8791 37.5 28.7991C37.5 33.5991 33.6 37.4991 28.8 37.4991ZM26.24 33.8991C27.02 34.2991 27.9 34.4991 28.8 34.4991C31.94 34.4991 34.5 31.9391 34.5 28.7991C34.5 26.6391 33.28 24.6991 31.42 23.7391C30.54 25.1791 29.24 26.3391 27.72 27.0591C27.84 27.6191 27.9 28.1991 27.9 28.7991C27.9 30.6391 27.32 32.4191 26.24 33.8991Z" fill="#C588FD"/>
<path d="M30 45.5H18C7.14 45.5 2.5 40.86 2.5 30V18C2.5 7.14 7.14 2.5 18 2.5H30C40.86 2.5 45.5 7.14 45.5 18V30C45.5 40.86 40.86 45.5 30 45.5ZM18 5.5C8.78 5.5 5.5 8.78 5.5 18V30C5.5 39.22 8.78 42.5 18 42.5H30C39.22 42.5 42.5 39.22 42.5 30V18C42.5 8.78 39.22 5.5 30 5.5H18Z" fill="#C588FD"/>
</svg>
