<svg width="48" height="48" viewBox="0 0 48 48" fill="none" xmlns="http://www.w3.org/2000/svg">
<path d="M30 45.5H18C7.14 45.5 2.5 40.86 2.5 30V18C2.5 7.14 7.14 2.5 18 2.5H30C40.86 2.5 45.5 7.14 45.5 18V30C45.5 40.86 40.86 45.5 30 45.5ZM18 5.5C8.78 5.5 5.5 8.78 5.5 18V30C5.5 39.22 8.78 42.5 18 42.5H30C39.22 42.5 42.5 39.22 42.5 30V18C42.5 8.78 39.22 5.5 30 5.5H18Z" fill="#C588FD"/>
<path d="M18 21.5C14.96 21.5 12.5 19.04 12.5 16C12.5 12.96 14.96 10.5 18 10.5C21.04 10.5 23.5 12.96 23.5 16C23.5 19.04 21.04 21.5 18 21.5ZM18 13.5C16.62 13.5 15.5 14.62 15.5 16C15.5 17.38 16.62 18.5 18 18.5C19.38 18.5 20.5 17.38 20.5 16C20.5 14.62 19.38 13.5 18 13.5Z" fill="#C588FD"/>
<path d="M5.33954 39.4011C4.85954 39.4011 4.37954 39.1611 4.09954 38.7411C3.63954 38.0611 3.81954 37.1211 4.51954 36.6611L14.3795 30.0411C16.5395 28.5811 19.5195 28.7611 21.4795 30.4211L22.1395 31.0011C23.1395 31.8611 24.8395 31.8611 25.8195 31.0011L34.1395 23.8611C36.2595 22.0411 39.5995 22.0411 41.7395 23.8611L44.9995 26.6611C45.6195 27.2011 45.6995 28.1411 45.1595 28.7811C44.6195 29.4011 43.6795 29.4811 43.0395 28.9411L39.7795 26.1411C38.7795 25.2811 37.0795 25.2811 36.0795 26.1411L27.7595 33.2811C25.6395 35.1011 22.2995 35.1011 20.1595 33.2811L19.4995 32.7011C18.5795 31.9211 17.0595 31.8411 16.0395 32.5411L6.17954 39.1611C5.91954 39.3211 5.61954 39.4011 5.33954 39.4011Z" fill="#C588FD"/>
</svg>
