<svg width="48" height="48" viewBox="0 0 48 48" fill="none" xmlns="http://www.w3.org/2000/svg">
<path d="M32.7599 45.4985H6.47985C4.57985 45.4985 2.81986 44.6186 1.67986 43.0786C0.519863 41.5186 0.179881 39.5585 0.759881 37.6985L9.17986 10.6384C9.93986 8.11843 12.2599 6.39844 14.8999 6.39844H39.4999C41.9199 6.39844 44.0999 7.83861 45.0199 10.0786C45.5199 11.2386 45.6199 12.5586 45.3199 13.8586L38.5799 40.9185C37.9399 43.6185 35.5399 45.4985 32.7599 45.4985ZM14.9199 9.41846C13.6199 9.41846 12.4399 10.2786 12.0599 11.5386L3.63989 38.5986C3.35989 39.5386 3.51987 40.5186 4.11987 41.3186C4.67987 42.0786 5.55987 42.5186 6.49987 42.5186H32.7799C34.1599 42.5186 35.3599 41.5785 35.6799 40.2385L42.4199 13.1584C42.5799 12.4984 42.5399 11.8385 42.2799 11.2585C41.7999 10.1185 40.7399 9.39844 39.5199 9.39844H14.9199V9.41846Z" fill="#C588FD"/>
<path d="M41.56 45.5019H32C31.18 45.5019 30.5 44.8219 30.5 44.0019C30.5 43.1819 31.18 42.5019 32 42.5019H41.56C42.38 42.5019 43.14 42.1619 43.7 41.5619C44.26 40.9619 44.54 40.162 44.48 39.342L42.5 12.102C42.44 11.282 43.06 10.5619 43.88 10.5019C44.7 10.4619 45.42 11.0618 45.48 11.8818L47.46 39.122C47.58 40.762 47 42.402 45.88 43.602C44.78 44.822 43.2 45.5019 41.56 45.5019Z" fill="#C588FD"/>
<path d="M19.3595 14.2614C19.2395 14.2614 19.1195 14.2413 18.9995 14.2213C18.1995 14.0213 17.6996 13.2213 17.8996 12.4013L19.9795 3.76138C20.1795 2.96138 20.9795 2.46128 21.7995 2.66128C22.5995 2.86128 23.0996 3.66135 22.8996 4.48135L20.8196 13.1215C20.6596 13.8015 20.0395 14.2614 19.3595 14.2614Z" fill="#C588FD"/>
<path d="M32.7599 14.2795C32.6599 14.2795 32.5399 14.2794 32.4399 14.2394C31.6399 14.0594 31.1199 13.2594 31.2799 12.4594L33.1598 3.77949C33.3398 2.95949 34.1399 2.45957 34.9399 2.61957C35.7399 2.77957 36.2598 3.59936 36.0998 4.39936L34.2198 13.0795C34.0798 13.7995 33.4599 14.2795 32.7599 14.2795Z" fill="#C588FD"/>
<path d="M31.4004 25.5H15.4004C14.5804 25.5 13.9004 24.82 13.9004 24C13.9004 23.18 14.5804 22.5 15.4004 22.5H31.4004C32.2204 22.5 32.9004 23.18 32.9004 24C32.9004 24.82 32.2204 25.5 31.4004 25.5Z" fill="#C588FD"/>
<path d="M29.4004 33.5H13.4004C12.5804 33.5 11.9004 32.82 11.9004 32C11.9004 31.18 12.5804 30.5 13.4004 30.5H29.4004C30.2204 30.5 30.9004 31.18 30.9004 32C30.9004 32.82 30.2204 33.5 29.4004 33.5Z" fill="#C588FD"/>
</svg>
