<svg width="48" height="48" viewBox="0 0 48 48" fill="none" xmlns="http://www.w3.org/2000/svg">
<path d="M30 45.5H18C7.14 45.5 2.5 40.86 2.5 30V18C2.5 7.14 7.14 2.5 18 2.5H30C40.86 2.5 45.5 7.14 45.5 18V30C45.5 40.86 40.86 45.5 30 45.5ZM18 5.5C8.78 5.5 5.5 8.78 5.5 18V30C5.5 39.22 8.78 42.5 18 42.5H30C39.22 42.5 42.5 39.22 42.5 30V18C42.5 8.78 39.22 5.5 30 5.5H18Z" fill="#C588FD"/>
<path d="M21.5197 32.7406C20.6797 32.7406 19.8997 32.5406 19.1997 32.1406C17.5997 31.2206 16.6797 29.3406 16.6797 26.9606V21.0406C16.6797 18.6806 17.5997 16.7806 19.1997 15.8606C20.7997 14.9406 22.8797 15.0806 24.9397 16.2806L30.0797 19.2406C32.1197 20.4206 33.2997 22.1606 33.2997 24.0006C33.2997 25.8406 32.1197 27.5806 30.0797 28.7606L24.9397 31.7206C23.7797 32.4006 22.5997 32.7406 21.5197 32.7406ZM21.5397 18.2606C21.2197 18.2606 20.9397 18.3206 20.7197 18.4606C20.0797 18.8406 19.6997 19.7806 19.6997 21.0406V26.9606C19.6997 28.2206 20.0597 29.1606 20.7197 29.5406C21.3597 29.9206 22.3597 29.7606 23.4597 29.1206L28.5997 26.1606C29.6997 25.5206 30.3197 24.7406 30.3197 24.0006C30.3197 23.2606 29.6997 22.4606 28.5997 21.8406L23.4597 18.8806C22.7397 18.4606 22.0797 18.2606 21.5397 18.2606Z" fill="#C588FD"/>
</svg>
