<svg width="48" height="48" viewBox="0 0 48 48" fill="none" xmlns="http://www.w3.org/2000/svg">
<path d="M35.2402 19.2383H24.7402C23.9202 19.2383 23.2402 18.5583 23.2402 17.7383C23.2402 16.9183 23.9202 16.2383 24.7402 16.2383H35.2402C36.0602 16.2383 36.7402 16.9183 36.7402 17.7383C36.7402 18.5583 36.0802 19.2383 35.2402 19.2383Z" fill="#C588FD"/>
<path d="M14.2401 20.7606C13.8601 20.7606 13.4801 20.6206 13.1801 20.3206L11.6801 18.8206C11.1001 18.2406 11.1001 17.2806 11.6801 16.7006C12.2601 16.1206 13.2201 16.1206 13.8001 16.7006L14.2401 17.1406L17.6801 13.7006C18.2601 13.1206 19.2201 13.1206 19.8001 13.7006C20.3801 14.2806 20.3801 15.2406 19.8001 15.8206L15.3001 20.3206C15.0201 20.6006 14.6401 20.7606 14.2401 20.7606Z" fill="#C588FD"/>
<path d="M35.2402 33.2383H24.7402C23.9202 33.2383 23.2402 32.5583 23.2402 31.7383C23.2402 30.9183 23.9202 30.2383 24.7402 30.2383H35.2402C36.0602 30.2383 36.7402 30.9183 36.7402 31.7383C36.7402 32.5583 36.0802 33.2383 35.2402 33.2383Z" fill="#C588FD"/>
<path d="M14.2401 34.7606C13.8601 34.7606 13.4801 34.6206 13.1801 34.3206L11.6801 32.8206C11.1001 32.2406 11.1001 31.2806 11.6801 30.7006C12.2601 30.1206 13.2201 30.1206 13.8001 30.7006L14.2401 31.1406L17.6801 27.7006C18.2601 27.1206 19.2201 27.1206 19.8001 27.7006C20.3801 28.2806 20.3801 29.2406 19.8001 29.8206L15.3001 34.3206C15.0201 34.6006 14.6401 34.7606 14.2401 34.7606Z" fill="#C588FD"/>
<path d="M30 45.5H18C7.14 45.5 2.5 40.86 2.5 30V18C2.5 7.14 7.14 2.5 18 2.5H30C40.86 2.5 45.5 7.14 45.5 18V30C45.5 40.86 40.86 45.5 30 45.5ZM18 5.5C8.78 5.5 5.5 8.78 5.5 18V30C5.5 39.22 8.78 42.5 18 42.5H30C39.22 42.5 42.5 39.22 42.5 30V18C42.5 8.78 39.22 5.5 30 5.5H18Z" fill="#C588FD"/>
</svg>
